<?xml version="1.0" encoding="iso-8859-1"?>
<!-- Generator: Adobe Illustrator 15.1.0, SVG Export Plug-In . SVG Version: 6.00 Build 0)  -->
<!DOCTYPE svg PUBLIC "-//W3C//DTD SVG 1.1//EN" "http://www.w3.org/Graphics/SVG/1.1/DTD/svg11.dtd">
<svg version="1.1" id="Layer_1" xmlns="http://www.w3.org/2000/svg" xmlns:xlink="http://www.w3.org/1999/xlink" x="0px" y="0px"
	 width="24px" height="15.467px" viewBox="0 0 24 15.467" enable-background="new 0 0 24 15.467" xml:space="preserve">
<g>
	<path fill="#FFFFFF" d="M0.792,1.447c0.651,0.35,9.664,5.192,10,5.372C11.127,7,11.562,7.086,12,7.086S12.873,7,13.208,6.819
		c0.335-0.18,9.349-5.022,10-5.372C23.859,1.098,24.476,0,23.279,0H0.721C-0.475,0,0.141,1.098,0.792,1.447z M23.484,4.114
		C22.744,4.5,13.661,9.25,13.208,9.486C12.755,9.723,12.438,9.753,12,9.753s-0.755-0.031-1.208-0.268
		C10.339,9.25,1.256,4.5,0.516,4.114C-0.004,3.843,0,4.161,0,4.407c0,0.246,0,9.781,0,9.781c0,0.559,0.745,1.279,1.322,1.279h21.355
		c0.578,0,1.322-0.72,1.322-1.279c0,0,0-9.535,0-9.781C24,4.161,24.005,3.843,23.484,4.114z"/>
</g>
</svg>
