<?xml version="1.0" encoding="iso-8859-1"?>
<!-- Generator: Adobe Illustrator 15.1.0, SVG Export Plug-In . SVG Version: 6.00 Build 0)  -->
<!DOCTYPE svg PUBLIC "-//W3C//DTD SVG 1.1//EN" "http://www.w3.org/Graphics/SVG/1.1/DTD/svg11.dtd">
<svg version="1.1" id="Layer_1" xmlns="http://www.w3.org/2000/svg" xmlns:xlink="http://www.w3.org/1999/xlink" x="0px" y="0px"
	 width="181.042px" height="181.041px" viewBox="0 0 181.042 181.041" enable-background="new 0 0 181.042 181.041"
	 xml:space="preserve">
<rect fill="#CB202A" width="181.042" height="181.041"/>
<g>
	<g opacity="0.64">
		<g>
			<defs>
				<rect id="SVGID_1_" x="24.568" y="59.735" width="20.009" height="53.646"/>
			</defs>
			<use xlink:href="#SVGID_1_"  overflow="visible" fill="#FFFFFF"/>
			<clipPath id="SVGID_2_">
				<use xlink:href="#SVGID_1_"  overflow="visible"/>
			</clipPath>
			<rect x="24.568" y="59.735" clip-path="url(#SVGID_2_)" fill="#FFFFFF" width="20.009" height="53.646"/>
		</g>
	</g>
	<polygon fill="#FFFFFF" points="76.385,59.735 62.35,84.507 48.44,59.735 24.568,59.735 61.707,125.284 78.163,96.239 
		78.163,121.091 98.172,121.091 98.172,59.735 	"/>
	<path fill="#FFFFFF" d="M163.131,90.693c0-9.687-2.805-18.095-7.908-23.687c-5.354-5.859-12.666-8.834-21.736-8.834
		c-9.001,0-16.354,3.061-21.86,9.094c-5.387,6.008-8.117,13.898-8.117,23.462c0,9.623,2.815,17.531,8.381,23.497
		c5.625,5.953,13.126,8.977,22.288,8.977c3.167,0,6.124-0.338,8.798-1.004c2.775-0.672,5.404-1.77,7.812-3.253
		c2.238-1.366,4.416-3.194,6.662-5.58c1.966-2.08,4.367-5.702,4.969-6.626l-16.874-7c-0.829,1.177-2.184,2.93-4.126,4.449
		c-1.519,1.184-3.733,1.84-6.662,1.84c-3.566,0-6.39-1.092-8.622-3.331c-1.455-1.523-2.529-3.447-3.194-5.716l-0.095-0.316h40.193
		C163.069,95.718,163.131,93.287,163.131,90.693 M122.6,85.767c0.756-6.101,5.149-11.22,11.287-11.22
		c7.053,0,10.539,5.119,11.289,11.224L122.6,85.767z"/>
	<path fill="#FFFFFF" d="M34.561,123.396c-5.518,0-10.016-4.503-10.016-10.021s4.498-10.01,10.016-10.01
		c5.519,0,10.017,4.492,10.017,10.01S40.079,123.396,34.561,123.396"/>
</g>
</svg>
