<?xml version="1.0" encoding="utf-8"?>
<!-- Generator: Adobe Illustrator 15.1.0, SVG Export Plug-In . SVG Version: 6.00 Build 0)  -->
<!DOCTYPE svg PUBLIC "-//W3C//DTD SVG 1.1//EN" "http://www.w3.org/Graphics/SVG/1.1/DTD/svg11.dtd">
<svg version="1.1" id="Layer_1" xmlns="http://www.w3.org/2000/svg" xmlns:xlink="http://www.w3.org/1999/xlink" x="0px" y="0px"
	 width="24px" height="22.978px" viewBox="0 0 24 22.978" enable-background="new 0 0 24 22.978" xml:space="preserve">
<g>
	<path fill="#FFFFFF" d="M18.792,17.167c-3.147-1.146-4.153-2.115-4.153-4.186c0-1.244,0.961-0.838,1.383-3.115
		c0.176-0.945,1.024-0.015,1.187-2.172c0-0.86-0.463-1.073-0.463-1.073s0.235-1.272,0.327-2.251C17.187,3.151,16.368,0,12,0
		S6.812,3.151,6.928,4.371C7.02,5.35,7.255,6.622,7.255,6.622S6.792,6.835,6.792,7.695c0.162,2.157,1.011,1.227,1.186,2.172
		C8.4,12.144,9.36,11.738,9.36,12.982c0,2.07-1.005,3.039-4.152,4.186C2.051,18.318,0,19.492,0,20.291c0,0.8,0,2.688,0,2.688h12h12
		c0,0,0-1.888,0-2.688C24,19.492,21.949,18.318,18.792,17.167z"/>
</g>
</svg>
