<?xml version="1.0" encoding="utf-8"?>
<!-- Generator: Adobe Illustrator 15.1.0, SVG Export Plug-In . SVG Version: 6.00 Build 0)  -->
<!DOCTYPE svg PUBLIC "-//W3C//DTD SVG 1.1//EN" "http://www.w3.org/Graphics/SVG/1.1/DTD/svg11.dtd">
<svg version="1.1" id="Layer_1" xmlns="http://www.w3.org/2000/svg" xmlns:xlink="http://www.w3.org/1999/xlink" x="0px" y="0px"
	 width="24px" height="24.001px" viewBox="0 0 24 24.001" enable-background="new 0 0 24 24.001" xml:space="preserve">
<g>
	<path fill="#FFFFFF" d="M22.095,1.905c-2.221-2.221-3.887-1.887-3.887-1.887L10.437,7.79l-8.883,8.883L0,24.001l7.327-1.555
		l8.883-8.883l7.772-7.771C23.982,5.792,24.315,4.126,22.095,1.905z M6.891,21.565l-2.497,0.537
		c-0.242-0.451-0.531-0.901-1.063-1.434c-0.531-0.531-0.982-0.82-1.433-1.062l0.538-2.498l0.722-0.722c0,0,1.36,0.026,2.894,1.562
		c1.535,1.535,1.562,2.895,1.562,2.895L6.891,21.565z"/>
</g>
</svg>
