<?xml version="1.0" encoding="iso-8859-1"?>
<!-- Generator: Adobe Illustrator 15.1.0, SVG Export Plug-In . SVG Version: 6.00 Build 0)  -->
<!DOCTYPE svg PUBLIC "-//W3C//DTD SVG 1.1//EN" "http://www.w3.org/Graphics/SVG/1.1/DTD/svg11.dtd">
<svg version="1.1" id="Layer_1" xmlns="http://www.w3.org/2000/svg" xmlns:xlink="http://www.w3.org/1999/xlink" x="0px" y="0px"
	 width="24px" height="19.2px" viewBox="0 0 24 19.2" enable-background="new 0 0 24 19.2" xml:space="preserve">
<g>
	<path fill="#FFFFFF" d="M21.6,0H2.4C1.08,0,0,1.08,0,2.4v14.4c0,1.32,1.08,2.4,2.4,2.4h19.2c1.32,0,2.4-1.08,2.4-2.4V2.4
		C24,1.08,22.92,0,21.6,0z M21.6,16.8H2.4V2.4h19.2V16.8z M10.8,12.12h-6v2.16h6V12.12z M10.8,8.52h-6v2.16h6V8.52z M10.8,4.92h-6
		v2.16h6V4.92z M19.08,12.6c0,0-2.04-0.534-2.04-1.582c0-0.999,1.32-1.418,1.32-3.458c0-1.657-0.503-2.64-2.16-2.64
		c-1.657,0-2.16,0.983-2.16,2.64c0,2.04,1.32,2.46,1.32,3.458c0,1.048-2.04,1.582-2.04,1.582c-0.12,0-0.12,1.68-0.12,1.68h6
		C19.2,14.28,19.2,12.6,19.08,12.6z"/>
</g>
</svg>
