<?xml version="1.0" encoding="iso-8859-1"?>
<!-- Generator: Adobe Illustrator 15.1.0, SVG Export Plug-In . SVG Version: 6.00 Build 0)  -->
<!DOCTYPE svg PUBLIC "-//W3C//DTD SVG 1.1//EN" "http://www.w3.org/Graphics/SVG/1.1/DTD/svg11.dtd">
<svg version="1.1" id="Layer_1" xmlns="http://www.w3.org/2000/svg" xmlns:xlink="http://www.w3.org/1999/xlink" x="0px" y="0px"
	 width="24px" height="22.8px" viewBox="0 0 24 22.8" enable-background="new 0 0 24 22.8" xml:space="preserve">
<g>
	<path fill="#FFFFFF" d="M20.55,7.406l-2.455-6.762c-0.182-0.5-0.713-0.764-1.187-0.591L0.592,6.007
		C0.117,6.181-0.12,6.726,0.061,7.225l2.588,7.13v-3.822c0-1.724,1.379-3.127,3.073-3.127h4.312l5.142-3.609l2.976,3.609H20.55z
		 M23.086,9.57H5.722c-0.504,0-0.914,0.431-0.914,0.962v11.305c0,0.531,0.409,0.962,0.914,0.962h17.364
		c0.504,0,0.914-0.431,0.914-0.962V10.533C24,10.001,23.591,9.57,23.086,9.57z M21.761,20.395H7.368v-2.062l2.214-5.154l3.322,4.124
		l3.116-3.194l4.007-1.446l1.735,3.866V20.395z"/>
</g>
</svg>
