<?xml version="1.0" encoding="iso-8859-1"?>
<!-- Generator: Adobe Illustrator 15.1.0, SVG Export Plug-In . SVG Version: 6.00 Build 0)  -->
<!DOCTYPE svg PUBLIC "-//W3C//DTD SVG 1.1//EN" "http://www.w3.org/Graphics/SVG/1.1/DTD/svg11.dtd">
<svg version="1.1" id="Layer_1" xmlns="http://www.w3.org/2000/svg" xmlns:xlink="http://www.w3.org/1999/xlink" x="0px" y="0px"
	 width="24px" height="24px" viewBox="0 0 24 24" enable-background="new 0 0 24 24" xml:space="preserve">
<g>
	<path fill="#FFFFFF" d="M21.333,2.667h-1.2v2.667h-4.267V2.667H8.133v2.667H3.867V2.667h-1.2C1.2,2.667,0,3.867,0,5.333v16
		C0,22.8,1.2,24,2.667,24h18.667C22.8,24,24,22.8,24,21.333v-16C24,3.867,22.8,2.667,21.333,2.667z M21.333,21.333H2.667V10.667
		h18.667V21.333z M6.934,0H5.066v4.533h1.867V0z M18.934,0h-1.867v4.533h1.867V0z"/>
</g>
</svg>
