<?xml version="1.0" encoding="iso-8859-1"?>
<!-- Generator: Adobe Illustrator 15.1.0, SVG Export Plug-In . SVG Version: 6.00 Build 0)  -->
<!DOCTYPE svg PUBLIC "-//W3C//DTD SVG 1.1//EN" "http://www.w3.org/Graphics/SVG/1.1/DTD/svg11.dtd">
<svg version="1.1" id="Layer_1" xmlns="http://www.w3.org/2000/svg" xmlns:xlink="http://www.w3.org/1999/xlink" x="0px" y="0px"
	 width="24px" height="17.143px" viewBox="0 0 24 17.143" enable-background="new 0 0 24 17.143" xml:space="preserve">
<g>
	<path fill="#FFFFFF" d="M24,2.449v-1.47C24,0.439,23.561,0,23.021,0H0.979C0.439,0,0,0.439,0,0.979v1.47h2.449v2.449H0v2.449h2.449
		v2.449H0v2.449h2.449v2.449H0v1.469c0,0.541,0.439,0.979,0.979,0.979h22.041c0.541,0,0.979-0.438,0.979-0.979v-1.469h-2.449v-2.449
		H24V9.796h-2.449V7.347H24V4.898h-2.449V2.449H24z M9.306,12.245V4.898l6.123,3.673L9.306,12.245z"/>
</g>
</svg>
